<svg xmlns="http://www.w3.org/2000/svg" viewBox="0 0 1351.56 431.47"><defs><style>.cls-1{fill:none;}.cls-2{fill:#32593c;}.cls-3{fill:#da583a;}</style></defs><g id="Layer_2" data-name="Layer 2"><g id="Layer_1-2" data-name="Layer 1"><path class="cls-1" d="M331.33,367h0Z"/><polygon class="cls-1" points="419.21 254.94 446.13 210.12 419.18 254.79 419.21 254.94"/><polygon class="cls-1" points="331.61 367.03 331.37 367.03 331.37 367.03 331.61 367.03"/><path class="cls-1" d="M697.28,166.25c-27.42,0-44.56,16.28-52.27,39.42h95.55C741,180.82,723.42,166.25,697.28,166.25Z"/><path class="cls-1" d="M1205,173.53c-32.14,0-55.28,26.14-55.28,65.13,0,27,16.29,44.13,44.14,44.13,32.56,0,55.27-26.14,55.27-64.7C1249.16,191.1,1232.88,173.53,1205,173.53Z"/><polygon class="cls-2" points="287.24 112.26 206.29 112.26 206.26 112.26 203.47 126.26 200.05 143.42 200 143.66 196.78 159.83 186.76 210.11 180.07 243.68 170.05 293.97 163.36 327.54 159.98 344.49 240.96 344.49 287.24 112.26"/><path class="cls-2" d="M504.9,112.26l-58.77,97.85h0l-26.92,44.82,0-.15-20,33.1,18.41-40.74L390.07,112.26h-81l52.7,233.94c-9,13.28-17.62,19.78-30.42,20.83H283.2l-119,0a32.2,32.2,0,0,0,0,64.39H320.66c48.85,0,78.84-17.57,115.26-76.7L584.6,112.26Z"/><polygon class="cls-2" points="331.37 367.03 323.12 367.03 323.12 367.03 331.37 367.03 331.37 367.03"/><path class="cls-2" d="M684,348.35c35.14,0,69.84-8.57,99-30l-33.85-51c-15.43,12.42-35.56,18.85-56.13,18.85-32.14,0-49.7-12-52.7-37.71H810.83c2.57-11.57,4.71-24.42,4.71-38.13,0-60.84-43.7-102-114.4-102-83.55,0-140.54,57-140.54,134.1C560.6,307.21,609.45,348.35,684,348.35Zm13.28-182.1c26.14,0,43.71,14.57,43.28,39.42H645C652.72,182.53,669.86,166.25,697.28,166.25Z"/><polygon class="cls-2" points="933.25 283.65 915.68 296.84 980.41 235.02 980.42 235.02 1058.48 159.82 1068.34 112.26 861.39 112.26 849.39 172.67 946.43 172.67 965.97 158 902.52 218.6 821.11 296.5 811.69 344.49 1025.92 344.49 1038.35 283.65 933.25 283.65"/><path class="cls-2" d="M1270.15,112.26l-5.57,27.85c-14.56-22.28-39.85-31.7-71.12-31.7-69.41,0-126,57-126,134.1,0,67.7,48,105.84,98.12,105.84,27,0,49.27-9,67.27-25.71l-4.72,21.85h77.13l46.27-232.23Zm-76.26,170.53c-27.85,0-44.14-17.14-44.14-44.13,0-39,23.14-65.13,55.28-65.13,27.85,0,44.13,17.57,44.13,44.56C1249.16,256.65,1226.45,282.79,1193.89,282.79Z"/><path class="cls-2" d="M74.26,159.83H175.34l6.73-33.57H74.26a16.79,16.79,0,0,0,0,33.57Z"/><path class="cls-3" d="M146.62,30.67l66.77,2,28.31.86-28.8,3a31.52,31.52,0,0,0-1.5,9.74c0,22.28,18,40.27,46.7,40.27,31.71,0,52.7-19.71,52.7-47.56a38.53,38.53,0,0,0-.38-5.42C307.67,14.05,290,0,263.67,0H156a16.77,16.77,0,0,0-11.86,28.64A17.69,17.69,0,0,0,146.62,30.67Z"/><path class="cls-3" d="M85,210.11a16.79,16.79,0,0,0,0,33.57h73.55l6.73-33.57Z"/><path class="cls-2" d="M148.46,294H16.79a16.79,16.79,0,0,0,0,33.57H141.73Z"/><path class="cls-3" d="M545.36,380.14a20.21,20.21,0,0,0-15.72,7c-2.45-4.66-7.35-7-12.88-7A18.16,18.16,0,0,0,504,385.2l.87-4.34H490.61l-8.53,42.81h15l4.27-21.41c1.34-6.63,4.58-9.4,9.16-9.4,3.4,0,5.37,2,5.37,5.77a13.51,13.51,0,0,1-.31,2.92l-4.51,22.12h15l4.35-21.56c1.34-6.56,4.58-9.25,9.08-9.25,3.4,0,5.37,1.9,5.37,5.69a14.22,14.22,0,0,1-.31,3l-4.43,22.12h15l4.66-23.7a25.28,25.28,0,0,0,.56-5.29C560.37,385.12,554.12,380.14,545.36,380.14Z"/><path class="cls-3" d="M592.6,380.14c-15.4,0-25.91,10.51-25.91,24.73,0,11.93,9,19.51,22.75,19.51a30.32,30.32,0,0,0,18.25-5.53l-6.24-9.4a16.55,16.55,0,0,1-10.35,3.48c-5.92,0-9.16-2.21-9.72-6.95h31.44a32,32,0,0,0,.87-7C613.69,387.73,605.63,380.14,592.6,380.14Zm-10.35,17.94c1.42-4.27,4.58-7.27,9.64-7.27,4.82,0,8.06,2.69,8,7.27Z"/><path class="cls-3" d="M657.85,365.06l-4.18,20.77c-2.69-3.95-7.35-5.69-13-5.69-12.8,0-23.3,10.51-23.3,24.73,0,12.48,8.85,19.51,18.09,19.51a17.53,17.53,0,0,0,12.4-4.9l-.87,4.19h14.22l11.69-58.61ZM640.63,412.3c-5.13,0-8.06-3.16-8.06-8.14,0-7.19,4.19-12,10.19-12,5.14,0,8.06,3.24,8.06,8.22C650.82,407.48,646.63,412.3,640.63,412.3Z"/><path class="cls-3" d="M695.06,390.81a24.77,24.77,0,0,1,12.72,3.24l5.29-10.51c-4.18-2.13-10.19-3.4-16.27-3.4-13,0-22.83,5.3-22.83,15.57,0,14.45,22.2,10,22.2,14.85,0,1.89-2,3.08-6.87,3.08-5.06,0-10.91-1.42-14.86-3.95L669,420.2c3.72,2.37,11,4.18,18.57,4.18,12.72,0,22.75-5.21,22.75-15.48,0-14.3-22.12-9.72-22.12-14.85C688.19,392.31,690.16,390.81,695.06,390.81Z"/><path class="cls-3" d="M764.66,380.14c-15.33,0-26.31,10.59-26.31,24.73,0,11.77,8.77,19.51,22.44,19.51,15.32,0,26.3-10.58,26.3-24.8C787.09,387.81,778.33,380.14,764.66,380.14Zm-3,32.16c-5.14,0-8.06-3.16-8.06-8.14,0-7.19,4.19-12,10.19-12,5.14,0,8.06,3.24,8.06,8.22C771.85,407.48,767.66,412.3,761.66,412.3Z"/><path class="cls-3" d="M824.86,380.14a19.49,19.49,0,0,0-13.43,5.14l.87-4.42H798.08l-8.53,42.81h15l4.27-21.17c1.34-6.56,4.9-9.64,10-9.64,4,0,5.93,2,5.93,5.69a12.3,12.3,0,0,1-.32,2.84L820,423.67h15l4.74-23.7a25.93,25.93,0,0,0,.55-5.29C840.34,385.12,834,380.14,824.86,380.14Z"/><path class="cls-3" d="M894.69,371.3h-15l-2.21,11.14h-6.24l-2.29,11.21h6.32l-2.85,14.14a18.67,18.67,0,0,0-.39,4c0,8,5.69,12.56,14.46,12.56a22.62,22.62,0,0,0,11.13-2.53l-1.89-10.34a9.45,9.45,0,0,1-4.5,1.26c-2.61,0-4-1.26-4-3.63a10.89,10.89,0,0,1,.15-1.43l2.85-14.06H900l2.22-11.21h-9.72Z"/><path class="cls-3" d="M938.14,380.14a20.1,20.1,0,0,0-12.48,4.27l3.87-19.35h-15l-11.69,58.61h15l4.26-21.17c1.35-6.56,4.9-9.64,10-9.64,4,0,5.92,2,5.92,5.69a12.82,12.82,0,0,1-.31,2.84l-4.43,22.28h15l4.74-23.7a23.81,23.81,0,0,0,.55-5.13C953.62,385.12,947.15,380.14,938.14,380.14Z"/><path class="cls-3" d="M985.78,380.14c-15.41,0-25.91,10.51-25.91,24.73,0,11.93,9,19.51,22.75,19.51a30.34,30.34,0,0,0,18.25-5.53l-6.24-9.4a16.55,16.55,0,0,1-10.35,3.48c-5.93,0-9.17-2.21-9.72-6.95H1006a32.66,32.66,0,0,0,.87-7C1006.87,387.73,998.81,380.14,985.78,380.14Zm-10.35,17.94c1.42-4.27,4.58-7.27,9.64-7.27,4.82,0,8,2.69,8,7.27Z"/><path class="cls-3" d="M1095.11,380.14a20.21,20.21,0,0,0-15.72,7c-2.45-4.66-7.35-7-12.88-7a18.12,18.12,0,0,0-12.79,5.06l.87-4.34h-14.22l-8.54,42.81h15l4.27-21.41c1.34-6.63,4.58-9.4,9.16-9.4,3.4,0,5.37,2,5.37,5.77a12.92,12.92,0,0,1-.31,2.92l-4.5,22.12h15l4.35-21.56c1.34-6.56,4.58-9.25,9.08-9.25,3.4,0,5.38,1.9,5.38,5.69a13.64,13.64,0,0,1-.32,3l-4.42,22.12h15l4.67-23.7a25.93,25.93,0,0,0,.55-5.29C1110.12,385.12,1103.88,380.14,1095.11,380.14Z"/><path class="cls-3" d="M1142.67,380.14c-15.33,0-26.31,10.59-26.31,24.73,0,11.77,8.77,19.51,22.44,19.51,15.32,0,26.3-10.58,26.3-24.8C1165.1,387.81,1156.34,380.14,1142.67,380.14Zm-3,32.16c-5.14,0-8.06-3.16-8.06-8.14,0-7.19,4.19-12,10.19-12,5.13,0,8.06,3.24,8.06,8.22C1149.86,407.48,1145.67,412.3,1139.67,412.3Z"/><polygon class="cls-3" points="1205.16 380.86 1189.28 407.08 1184.07 380.86 1169.21 380.86 1178.3 423.67 1193.86 423.67 1220.01 380.86 1205.16 380.86"/><path class="cls-3" d="M1241.5,380.14c-15.41,0-25.91,10.51-25.91,24.73,0,11.93,9,19.51,22.75,19.51a30.31,30.31,0,0,0,18.24-5.53l-6.24-9.4a16.5,16.5,0,0,1-10.34,3.48c-5.93,0-9.17-2.21-9.72-6.95h31.44a32.66,32.66,0,0,0,.87-7C1262.59,387.73,1254.53,380.14,1241.5,380.14Zm-10.35,17.94c1.42-4.27,4.58-7.27,9.64-7.27,4.81,0,8,2.69,8,7.27Z"/><path class="cls-3" d="M1273.1,406.61a9.31,9.31,0,0,0-9.64,9.56c0,4.74,3.55,8.21,8.53,8.21a9.34,9.34,0,0,0,9.56-9.56C1281.55,409.93,1278.15,406.61,1273.1,406.61Z"/></g></g></svg>